<?xml version="1.0" standalone="no"?>
<!DOCTYPE svg PUBLIC "-//W3C//DTD SVG 20010904//EN"
 "http://www.w3.org/TR/2001/REC-SVG-20010904/DTD/svg10.dtd">
<svg version="1.0" xmlns="http://www.w3.org/2000/svg"
 width="1280.000000pt" height="1142.000000pt" viewBox="0 0 1280.000000 1142.000000"
 preserveAspectRatio="xMidYMid meet">
<metadata>
Created by potrace 1.15, written by Peter Selinger 2001-2017
</metadata>
<g transform="translate(0.000000,1142.000000) scale(0.100000,-0.100000)"
fill="#000000" stroke="none">
<path d="M8870 11409 c0 -6 33 -44 73 -83 105 -103 171 -133 467 -211 361 -96
831 -288 1193 -488 448 -247 754 -510 929 -798 165 -272 185 -596 53 -886 -83
-181 -179 -314 -390 -539 l-120 -128 -7 90 c-23 269 -108 515 -250 722 -101
146 -293 329 -473 449 -293 196 -742 369 -1230 474 -150 32 -455 86 -455 81 0
-3 18 -29 40 -59 84 -111 253 -235 640 -468 281 -170 461 -291 573 -385 293
-245 385 -484 287 -738 -93 -242 -378 -525 -714 -708 l-68 -37 8 54 c5 30 9
119 9 199 -1 166 -18 247 -81 373 -174 347 -576 574 -960 542 l-88 -7 55 -52
c30 -28 112 -100 184 -161 203 -173 294 -296 330 -446 27 -116 14 -214 -44
-327 -132 -254 -520 -488 -1042 -626 -800 -211 -1789 -228 -2689 -46 -618 125
-992 318 -1116 577 -86 178 -45 394 101 538 83 82 183 140 403 231 287 118
372 166 462 258 54 56 58 56 -160 15 -662 -122 -1105 -324 -1279 -584 -121
-181 -126 -377 -16 -612 24 -51 42 -93 41 -93 -17 0 -284 98 -339 125 -281
133 -540 353 -629 532 -43 86 -43 88 -43 192 0 101 2 110 36 181 116 244 371
441 1024 790 283 152 497 273 543 308 l35 27 -69 12 c-99 18 -388 17 -515 -1
-795 -113 -1496 -520 -1741 -1011 -73 -146 -103 -275 -101 -442 0 -68 -2 -123
-4 -123 -14 0 -132 78 -210 139 -175 136 -317 309 -384 469 -47 115 -61 198
-57 337 4 102 10 134 37 217 72 211 226 409 461 588 448 342 1067 617 1797
800 211 52 449 102 643 135 85 14 167 28 183 31 27 6 27 6 27 89 l0 83 -37 -4
c-21 -2 -105 -8 -188 -14 -1164 -85 -2325 -425 -3191 -936 -419 -247 -682
-537 -780 -860 -23 -77 -27 -107 -28 -224 0 -112 3 -149 22 -215 100 -352 435
-694 917 -937 183 -92 345 -158 618 -253 l209 -72 47 -89 c265 -502 755 -875
1631 -1241 1099 -460 2250 -789 3345 -957 505 -78 861 -107 1388 -113 425 -5
651 2 952 33 253 25 1069 143 1280 185 855 169 1316 503 1515 1097 22 64 38
118 36 119 -1 2 -104 -48 -227 -110 -871 -438 -1713 -661 -2864 -759 -203 -17
-1046 -17 -1265 0 -769 61 -1373 158 -2075 333 -931 233 -2071 662 -2585 974
-121 73 -430 279 -425 283 1 2 49 -10 106 -27 783 -227 1748 -379 2786 -441
865 -51 2217 -23 2963 60 1098 124 2060 377 2985 786 839 371 1280 788 1412
1336 24 99 24 325 0 425 -62 262 -194 481 -428 709 -163 158 -317 273 -587
436 -706 427 -1715 752 -2677 863 -77 8 -157 18 -177 21 -27 4 -38 2 -38 -7z"/>
<path d="M6036 8214 c-458 -47 -804 -120 -1073 -225 l-105 -41 6 -31 c16 -77
80 -181 166 -268 200 -202 480 -297 973 -331 195 -13 496 -2 752 27 188 22
603 92 720 122 252 64 401 191 399 340 -2 120 -124 217 -370 292 -174 53 -233
61 -804 116 -187 18 -487 18 -664 -1z"/>
<path d="M12234 7982 c-103 -85 -305 -234 -444 -328 -894 -601 -1929 -958
-3273 -1129 -814 -103 -1870 -165 -2172 -127 -55 7 -235 31 -400 52 -409 53
-496 61 -702 61 -182 0 -273 -8 -401 -36 -80 -16 -209 -58 -251 -80 l-26 -13
25 -6 c67 -15 629 -95 990 -140 824 -104 1463 -148 2165 -148 845 0 1533 69
2270 227 1079 232 1693 550 2030 1050 56 84 155 284 184 375 24 73 72 282 67
287 -2 2 -30 -18 -62 -45z"/>
<path d="M2605 6403 c87 -151 265 -385 417 -549 869 -941 2272 -1483 4278
-1654 530 -45 1147 -63 1935 -57 650 4 727 9 991 57 396 71 697 227 880 454
75 93 163 263 194 376 22 79 52 251 46 258 -2 2 -62 -32 -133 -74 -587 -354
-1268 -557 -2103 -625 -187 -16 -727 -16 -945 0 -1037 72 -2119 324 -3329 777
-434 163 -598 239 -926 432 -102 59 -279 164 -395 232 -262 153 -477 263 -642
328 -112 44 -261 92 -286 92 -5 0 3 -21 18 -47z"/>
<path d="M4687 4303 l-37 -4 77 -90 c459 -537 1362 -977 2288 -1114 376 -56
856 -60 1165 -9 385 63 712 183 978 361 98 66 229 172 291 237 l35 36 -130 0
c-134 0 -409 -16 -833 -50 -443 -34 -664 -43 -956 -37 -570 12 -765 56 -1575
355 -519 191 -718 251 -962 291 -129 21 -277 31 -341 24z"/>
<path d="M4927 3503 c19 -191 112 -361 303 -554 118 -119 324 -286 479 -391
449 -301 1116 -441 1731 -362 469 60 841 231 1120 513 l94 96 -554 6 c-585 6
-729 11 -1005 35 -840 70 -1456 261 -2062 640 -55 35 -103 64 -106 64 -2 0 -2
-21 0 -47z"/>
<path d="M4990 2468 c0 -121 34 -222 115 -343 126 -190 453 -462 692 -576 202
-96 409 -146 643 -156 423 -16 807 127 1087 405 71 71 160 179 152 186 -10 9
-284 27 -555 36 -696 24 -893 40 -1139 95 -307 68 -639 212 -912 396 -40 27
-75 49 -78 49 -3 0 -5 -42 -5 -92z"/>
<path d="M4790 1391 c0 -17 60 -181 101 -274 79 -183 234 -424 397 -617 101
-120 309 -323 432 -422 l95 -77 6 27 c4 15 14 63 22 107 34 186 117 332 314
554 164 185 261 307 311 391 24 40 42 74 40 76 -2 2 -55 -1 -118 -6 -242 -20
-546 -10 -755 26 -204 34 -481 106 -724 189 -114 38 -121 40 -121 26z"/>
</g>
</svg>
