<svg id="SvgjsSvg1267" width="288" height="288" xmlns="http://www.w3.org/2000/svg" version="1.1" xmlns:xlink="http://www.w3.org/1999/xlink" xmlns:svgjs="http://svgjs.com/svgjs"><defs id="SvgjsDefs1268"></defs><g id="SvgjsG1269"><svg xmlns="http://www.w3.org/2000/svg" version="1.0" viewBox="0 0 24 24" width="288" height="288"><path fill="#ffbf66" d="M11.729 15.511a3.631 3.631 0 0 1-3.398-2.367 3.577 3.577 0 0 1 .09-2.783 3.666 3.666 0 0 1 2.038-1.91 3.67 3.67 0 0 1 3.444.467.35.35 0 1 1-.408.568 2.981 2.981 0 0 0-2.788-.381 2.973 2.973 0 0 0-1.649 1.547 2.879 2.879 0 0 0-.074 2.243 2.939 2.939 0 0 0 1.553 1.659c.712.32 1.51.341 2.243.061a.35.35 0 1 1 .25.654 3.625 3.625 0 0 1-1.301.242zM11.746 7.203a.35.35 0 0 1-.35-.35v-1.3a.35.35 0 0 1 .7 0v1.301a.35.35 0 0 1-.35.349zM11.746 18.797a.35.35 0 0 1-.35-.35v-1.301a.35.35 0 0 1 .7 0v1.301a.35.35 0 0 1-.35.35zM6.592 12.35H5.289a.35.35 0 1 1 0-.7h1.303a.35.35 0 1 1 0 .7zM8.092 8.703a.35.35 0 0 1-.248-.103l-.906-.906a.35.35 0 1 1 .495-.494l.906.906a.348.348 0 0 1 0 .494.346.346 0 0 1-.247.103zM7.186 16.902a.35.35 0 0 1-.248-.598l.907-.904a.35.35 0 0 1 .495.001.35.35 0 0 1 0 .495l-.906.904a.35.35 0 0 1-.248.102z" class="color010101 svgShape"></path><path fill="#ffbf66" d="M15.398 17.186a2.815 2.815 0 0 1-2.813-2.811c0-.749.307-1.457.848-1.966v-5.13c0-.868.858-1.877 1.965-1.877 1.09 0 1.936 1.009 1.936 1.877v5.13c.542.51.85 1.218.85 1.966 0 1.55-1.249 2.811-2.786 2.811zm0-11.084c-.734 0-1.265.704-1.265 1.178v5.287a.352.352 0 0 1-.126.27 1.996 1.996 0 0 0-.721 1.539c0 1.164.948 2.111 2.113 2.111 1.15 0 2.085-.947 2.085-2.111 0-.596-.264-1.157-.723-1.539a.35.35 0 0 1-.126-.27V7.279c-.001-.463-.531-1.177-1.237-1.177z" class="color010101 svgShape"></path><path fill="#ffbf66" d="M15.342 13.82a.35.35 0 0 1-.35-.35V7.393a.35.35 0 0 1 .7 0v6.078a.35.35 0 0 1-.35.349z" class="color010101 svgShape"></path><path fill="#ffbf66" d="M15.369 15.631c-.677 0-1.227-.55-1.227-1.227 0-.688.539-1.227 1.227-1.227.689 0 1.229.538 1.229 1.227 0 .677-.551 1.227-1.229 1.227zm0-1.754c-.3 0-.527.227-.527.527 0 .285.241.527.527.527a.535.535 0 0 0 .529-.527c0-.3-.227-.527-.529-.527zM18.711 11.842h-1.699a.35.35 0 1 1 0-.7h1.699a.35.35 0 1 1 0 .7zM18.711 10.23h-1.699a.35.35 0 1 1 0-.7h1.699a.35.35 0 1 1 0 .7zM18.711 8.561h-1.699a.35.35 0 1 1 0-.7h1.699a.35.35 0 1 1 0 .7z" class="color010101 svgShape"></path></svg></g></svg>