<svg id="SvgjsSvg1262" width="288" height="288" xmlns="http://www.w3.org/2000/svg" version="1.1" xmlns:xlink="http://www.w3.org/1999/xlink" xmlns:svgjs="http://svgjs.com/svgjs"><defs id="SvgjsDefs1263"></defs><g id="SvgjsG1264"><svg xmlns="http://www.w3.org/2000/svg" viewBox="0 0 24 24" width="288" height="288"><path d="M12,15a2,2,0,1,0,2,2A2,2,0,0,0,12,15Zm4.5-2V5.5a4.5,4.5,0,0,0-9,0V13a6,6,0,0,0,3.21,9.83A7,7,0,0,0,12,23,6,6,0,0,0,16.5,13Zm-2,7.07a4,4,0,0,1-5.32-6,1,1,0,0,0,.3-.71V5.5a2.5,2.5,0,0,1,5,0v7.94a1,1,0,0,0,.3.71,4,4,0,0,1-.28,6Z" fill="#ffbf66" class="color000 svgShape"></path></svg></g></svg>