<svg xmlns="http://www.w3.org/2000/svg" viewBox="0 0 48 48" id="pressure-meter"><g data-name="pressure meter"><path fill="#374f68" d="M42,19A18,18,0,1,1,12.32,5.32C23.86-4.57,42,3.56,42,19Z"></path><path fill="#425b72" d="M42,19a17.88,17.88,0,0,1-4.28,11.64A18,18,0,0,1,12.32,5.32C23.86-4.57,42,3.56,42,19Z"></path><path fill="#9fdbf3" d="M38,19A14,14,0,1,1,25,5,14,14,0,0,1,38,19Z"></path><path fill="#b2e5fb" d="M36,21a14,14,0,0,1-3.16,8.84A14,14,0,0,1,13.16,10.16,14,14,0,0,1,36,21Z"></path><path fill="#fc6" d="M26,19a2,2,0,1,1-1.45-1.92A2,2,0,0,1,26,19Z"></path><path fill="#ffde76" d="M25.82,19.82a2,2,0,0,1-2.64-2.64A2,2,0,0,1,25.82,19.82Z"></path><path fill="#2c435e" d="M30,15l-4.08,3.45a2,2,0,0,0-1.37-1.37L28,13Z"></path><path fill="#fc6" d="M32,35.12V39a2,2,0,0,1-2,2H18a2,2,0,0,1-2-2V35.12A18,18,0,0,0,32,35.12Z"></path><path fill="#ffde76" d="M32,35.12V39H21a3,3,0,0,1-3-3A18,18,0,0,0,32,35.12Z"></path><rect width="10" height="6" x="19" y="41" fill="#ffba55"></rect><path fill="#fc6" d="M29,43v4H21a4,4,0,0,1,4-4Z"></path><rect width="8" height="1" x="21" y="47" fill="#fc6"></rect><rect width="2" height="1" x="19" y="47" fill="#ffba55"></rect><path d="M43,19A19,19,0,1,0,15,35.73V39a3,3,0,0,0,3,3v5a1,1,0,0,0,2,0V42h8v5a1,1,0,0,0,2,0V42a3,3,0,0,0,3-3V35.73A19,19,0,0,0,43,19ZM31,39a1,1,0,0,1-1,1H18a1,1,0,0,1-1-1V36.65a18.77,18.77,0,0,0,14,0Zm-7-3A17,17,0,1,1,41,19,17,17,0,0,1,24,36Z"></path><path d="M24,4A15,15,0,1,0,39,19,15,15,0,0,0,24,4Zm1,28V31a1,1,0,0,0-2,0V32A13,13,0,0,1,11.05,20H12a1,1,0,0,0,0-2h-.95A13,13,0,0,1,23,6.05V7a1,1,0,0,0,2,0v-1A13,13,0,0,1,37,18H36a1,1,0,0,0,0,2h1A13,13,0,0,1,25,32Z"></path><path d="M28.71,12.29a1,1,0,0,0-1.47.06C23.75,16.48,24.22,16,24,16a3,3,0,0,0-2.93,3.64l-4.83,5.71a1,1,0,0,0,1.41,1.41C24.43,21,23,22,24,22a3,3,0,0,0,3-3.14C32.18,14.47,31.88,15.47,28.71,12.29ZM24,20a1,1,0,0,1,0-2A1,1,0,0,1,24,20Zm4.06-5.52.46.46C25.34,17.63,25.34,17.7,28.06,14.48Z"></path></g></svg>