<svg xmlns="http://www.w3.org/2000/svg" viewBox="0 0 64 64" id="sea-level"><g fill="#3EBBDD"><path d="M2 24h23v2H2zM2 42h60v2H2zM43 48h19v2H43zM39 48h2v2h-2zM2 48h35v2H2zM41 24h21v2H41zM41 30h21v2H41zM41 36h21v2H41z"></path><path d="M26 32H2v-2h24c.551 0 1-.448 1-1V17.97c0-1.086-.884-1.97-1.97-1.97-1.146 0-2.03.884-2.03 1.97 0 .591.439 1.03.98 1.03H25v2h-1.02A2.984 2.984 0 0 1 21 18.02c0-2.238 1.781-4.02 3.97-4.02 2.249 0 4.03 1.781 4.03 3.97V29c0 1.654-1.346 3-3 3z"></path><path d="M36 38H2v-2h34c.551 0 1-.448 1-1V20.97c0-1.086-.884-1.97-1.97-1.97-1.146 0-2.03.884-2.03 1.97 0 .591.439 1.03.98 1.03H35v2h-1.02A2.984 2.984 0 0 1 31 21.02c0-2.238 1.781-4.02 3.97-4.02 2.249 0 4.03 1.781 4.03 3.97V35c0 1.654-1.346 3-3 3z"></path></g></svg>