<svg xmlns="http://www.w3.org/2000/svg" enable-background="new 0 0 64 64" viewBox="0 0 64 64" id="sunrise"><path fill="#FF943E" d="M32 20L32 20c-1.1 0-2-.9-2-2v-2c0-1.1.9-2 2-2h0c1.1 0 2 .9 2 2v2C34 19.1 33.1 20 32 20zM43 31L43 31c0-1.1.9-2 2-2h2c1.1 0 2 .9 2 2v0c0 1.1-.9 2-2 2h-2C43.9 33 43 32.1 43 31zM15 31L15 31c0-1.1.9-2 2-2h2c1.1 0 2 .9 2 2v0c0 1.1-.9 2-2 2h-2C15.9 33 15 32.1 15 31zM20 19L20 19c.8-.8 2-.8 2.8 0l1.4 1.4c.8.8.8 2 0 2.8l0 0c-.8.8-2 .8-2.8 0L20 21.8C19.2 21 19.2 19.8 20 19zM44 19L44 19c.8.8.8 2 0 2.8l-1.4 1.4c-.8.8-2 .8-2.8 0l0 0c-.8-.8-.8-2 0-2.8l1.4-1.4C42 18.2 43.2 18.2 44 19zM38.9 35c.7-1.2 1.1-2.5 1.1-4 0-4.4-3.6-8-8-8s-8 3.6-8 8c0 1.5.4 2.8 1.1 4H38.9z"></path><path fill="#EA8839" d="M36.6,24.4c0.9,1.3,1.4,2.9,1.4,4.6c0,1.5-0.4,2.8-1.1,4H24.3c0.2,0.7,0.5,1.4,0.8,2h13.8c0.7-1.2,1.1-2.5,1.1-4C40,28.3,38.6,25.9,36.6,24.4z"></path><path fill="#4B86C5" d="M32,52c-0.6,0-1-0.4-1-1V39c0-0.6,0.4-1,1-1s1,0.4,1,1v12C33,51.6,32.6,52,32,52z"></path><path fill="#4B86C5" d="M36,44c-0.3,0-0.5-0.1-0.7-0.3l-4-4c-0.4-0.4-0.4-1,0-1.4s1-0.4,1.4,0l4,4c0.4,0.4,0.4,1,0,1.4C36.5,43.9,36.3,44,36,44z"></path><path fill="#4B86C5" d="M28,44c-0.3,0-0.5-0.1-0.7-0.3c-0.4-0.4-0.4-1,0-1.4l4-4c0.4-0.4,1-0.4,1.4,0s0.4,1,0,1.4l-4,4C28.5,43.9,28.3,44,28,44z"></path></svg>