<svg id="SvgjsSvg1001" width="288" height="288" xmlns="http://www.w3.org/2000/svg" version="1.1" xmlns:xlink="http://www.w3.org/1999/xlink" xmlns:svgjs="http://svgjs.com/svgjs"><defs id="SvgjsDefs1002"></defs><g id="SvgjsG1008"><svg xmlns="http://www.w3.org/2000/svg" enable-background="new 0 0 96 96" viewBox="0 0 96 96" width="288" height="288"><linearGradient id="a" x1="27" x2="27" y1=".286" y2="95.814" gradientUnits="userSpaceOnUse"><stop offset="0" stop-color="#9cdbfa" class="stopColorf75ba2 svgShape"></stop><stop offset=".172" stop-color="#5cc1f4" class="stopColorf45ca3 svgShape"></stop><stop offset=".322" stop-color="#69c6f4" class="stopColore961a8 svgShape"></stop><stop offset=".464" stop-color="#68b2d7" class="stopColord768b0 svgShape"></stop><stop offset=".601" stop-color="#53b0de" class="stopColorbe73bb svgShape"></stop><stop offset=".734" stop-color="#80b0c8" class="stopColor9d80c8 svgShape"></stop><stop offset=".865" stop-color="#88d1f5" class="stopColor7590da svgShape"></stop><stop offset=".991" stop-color="#47b6ed" class="stopColor47a4ed svgShape"></stop><stop offset="1" stop-color="#43b6ef" class="stopColor43a5ef svgShape"></stop></linearGradient><path fill="url(#a)" d="M37,65.5195312V12c0-5.5136719-4.4858398-10-10-10S17,6.4863281,17,12v53.5195312
		C13.2246094,68.5478516,11,73.1376953,11,78c0,8.8222656,7.1777344,16,16,16s16-7.1777344,16-16
		C43,73.1376953,40.7753906,68.5478516,37,65.5195312z M27,90c-6.6166992,0-12-5.3828125-12-12
		c0-3.9121094,1.9233398-7.5917969,5.1450195-9.8408203C20.6806641,67.7851562,21,67.1728516,21,66.5195312V12
		c0-3.3085938,2.6914062-6,6-6s6,2.6914062,6,6v54.5195312c0,0.6533203,0.3193359,1.265625,0.8549805,1.6396484
		C37.0766602,70.4082031,39,74.0878906,39,78C39,84.6171875,33.6166992,90,27,90z"></path><linearGradient id="b" x1="27" x2="27" y1=".286" y2="95.814" gradientUnits="userSpaceOnUse"><stop offset="0" stop-color="#9cdbfa" class="stopColorf75ba2 svgShape"></stop><stop offset=".172" stop-color="#5cc1f4" class="stopColorf45ca3 svgShape"></stop><stop offset=".322" stop-color="#69c6f4" class="stopColore961a8 svgShape"></stop><stop offset=".464" stop-color="#68b2d7" class="stopColord768b0 svgShape"></stop><stop offset=".601" stop-color="#53b0de" class="stopColorbe73bb svgShape"></stop><stop offset=".734" stop-color="#80b0c8" class="stopColor9d80c8 svgShape"></stop><stop offset=".865" stop-color="#88d1f5" class="stopColor7590da svgShape"></stop><stop offset=".991" stop-color="#47b6ed" class="stopColor47a4ed svgShape"></stop><stop offset="1" stop-color="#43b6ef" class="stopColor43a5ef svgShape"></stop></linearGradient><path fill="url(#b)" d="M33.2822266,68.9794922L32,68.0839844V12c0-2.7568359-2.2431641-5-5-5s-5,2.2431641-5,5v56.0839844
		l-1.2827148,0.8955078C17.7636719,71.0419922,16,74.4140625,16,78c0,6.0654297,4.9345703,11,11,11s11-4.9345703,11-11
		C38,74.4140625,36.2363281,71.0419922,33.2822266,68.9794922z M27,11c0.5512695,0,1,0.4482422,1,1v2h-2v-2
		C26,11.4482422,26.4487305,11,27,11z M27,85c-3.8598633,0-7-3.140625-7-7c0-2.2802734,1.1240234-4.4267578,3.0068359-5.7412109
		l2.1376953-1.4921875C25.6806641,70.3925781,26,69.7802734,26,69.1269531V18h2v51.1269531
		c0,0.6533203,0.3193359,1.265625,0.8554688,1.6396484l2.137207,1.4921875C32.8759766,73.5732422,34,75.7197266,34,78
		C34,81.859375,30.8598633,85,27,85z"></path><linearGradient id="c" x1="8" x2="8" y1=".286" y2="95.814" gradientUnits="userSpaceOnUse"><stop offset="0" stop-color="#9cdbfa" class="stopColorf75ba2 svgShape"></stop><stop offset=".172" stop-color="#5cc1f4" class="stopColorf45ca3 svgShape"></stop><stop offset=".322" stop-color="#69c6f4" class="stopColore961a8 svgShape"></stop><stop offset=".464" stop-color="#68b2d7" class="stopColord768b0 svgShape"></stop><stop offset=".601" stop-color="#53b0de" class="stopColorbe73bb svgShape"></stop><stop offset=".734" stop-color="#80b0c8" class="stopColor9d80c8 svgShape"></stop><stop offset=".865" stop-color="#88d1f5" class="stopColor7590da svgShape"></stop><stop offset=".991" stop-color="#47b6ed" class="stopColor47a4ed svgShape"></stop><stop offset="1" stop-color="#43b6ef" class="stopColor43a5ef svgShape"></stop></linearGradient><path fill="url(#c)" d="M4,18h8c1.1044922,0,2-0.8955078,2-2s-0.8955078-2-2-2H4c-1.1044922,0-2,0.8955078-2,2S2.8955078,18,4,18z"></path><linearGradient id="d" x1="8" x2="8" y1=".286" y2="95.814" gradientUnits="userSpaceOnUse"><stop offset="0" stop-color="#9cdbfa" class="stopColorf75ba2 svgShape"></stop><stop offset=".172" stop-color="#5cc1f4" class="stopColorf45ca3 svgShape"></stop><stop offset=".322" stop-color="#69c6f4" class="stopColore961a8 svgShape"></stop><stop offset=".464" stop-color="#68b2d7" class="stopColord768b0 svgShape"></stop><stop offset=".601" stop-color="#53b0de" class="stopColorbe73bb svgShape"></stop><stop offset=".734" stop-color="#80b0c8" class="stopColor9d80c8 svgShape"></stop><stop offset=".865" stop-color="#88d1f5" class="stopColor7590da svgShape"></stop><stop offset=".991" stop-color="#47b6ed" class="stopColor47a4ed svgShape"></stop><stop offset="1" stop-color="#43b6ef" class="stopColor43a5ef svgShape"></stop></linearGradient><path fill="url(#d)" d="M4,26h8c1.1044922,0,2-0.8955078,2-2s-0.8955078-2-2-2H4c-1.1044922,0-2,0.8955078-2,2S2.8955078,26,4,26z"></path><linearGradient id="e" x1="8" x2="8" y1=".286" y2="95.814" gradientUnits="userSpaceOnUse"><stop offset="0" stop-color="#9cdbfa" class="stopColorf75ba2 svgShape"></stop><stop offset=".172" stop-color="#5cc1f4" class="stopColorf45ca3 svgShape"></stop><stop offset=".322" stop-color="#69c6f4" class="stopColore961a8 svgShape"></stop><stop offset=".464" stop-color="#68b2d7" class="stopColord768b0 svgShape"></stop><stop offset=".601" stop-color="#53b0de" class="stopColorbe73bb svgShape"></stop><stop offset=".734" stop-color="#80b0c8" class="stopColor9d80c8 svgShape"></stop><stop offset=".865" stop-color="#88d1f5" class="stopColor7590da svgShape"></stop><stop offset=".991" stop-color="#47b6ed" class="stopColor47a4ed svgShape"></stop><stop offset="1" stop-color="#43b6ef" class="stopColor43a5ef svgShape"></stop></linearGradient><path fill="url(#e)" d="M4,34h8c1.1044922,0,2-0.8955078,2-2s-0.8955078-2-2-2H4c-1.1044922,0-2,0.8955078-2,2S2.8955078,34,4,34z"></path><linearGradient id="f" x1="8" x2="8" y1=".286" y2="95.814" gradientUnits="userSpaceOnUse"><stop offset="0" stop-color="#9cdbfa" class="stopColorf75ba2 svgShape"></stop><stop offset=".172" stop-color="#5cc1f4" class="stopColorf45ca3 svgShape"></stop><stop offset=".322" stop-color="#69c6f4" class="stopColore961a8 svgShape"></stop><stop offset=".464" stop-color="#68b2d7" class="stopColord768b0 svgShape"></stop><stop offset=".601" stop-color="#53b0de" class="stopColorbe73bb svgShape"></stop><stop offset=".734" stop-color="#80b0c8" class="stopColor9d80c8 svgShape"></stop><stop offset=".865" stop-color="#88d1f5" class="stopColor7590da svgShape"></stop><stop offset=".991" stop-color="#47b6ed" class="stopColor47a4ed svgShape"></stop><stop offset="1" stop-color="#43b6ef" class="stopColor43a5ef svgShape"></stop></linearGradient><path fill="url(#f)" d="M4,42h8c1.1044922,0,2-0.8955078,2-2s-0.8955078-2-2-2H4c-1.1044922,0-2,0.8955078-2,2S2.8955078,42,4,42z"></path><linearGradient id="g" x1="8" x2="8" y1=".286" y2="95.814" gradientUnits="userSpaceOnUse"><stop offset="0" stop-color="#9cdbfa" class="stopColorf75ba2 svgShape"></stop><stop offset=".172" stop-color="#5cc1f4" class="stopColorf45ca3 svgShape"></stop><stop offset=".322" stop-color="#69c6f4" class="stopColore961a8 svgShape"></stop><stop offset=".464" stop-color="#68b2d7" class="stopColord768b0 svgShape"></stop><stop offset=".601" stop-color="#53b0de" class="stopColorbe73bb svgShape"></stop><stop offset=".734" stop-color="#80b0c8" class="stopColor9d80c8 svgShape"></stop><stop offset=".865" stop-color="#88d1f5" class="stopColor7590da svgShape"></stop><stop offset=".991" stop-color="#47b6ed" class="stopColor47a4ed svgShape"></stop><stop offset="1" stop-color="#43b6ef" class="stopColor43a5ef svgShape"></stop></linearGradient><path fill="url(#g)" d="M4,50h8c1.1044922,0,2-0.8955078,2-2s-0.8955078-2-2-2H4c-1.1044922,0-2,0.8955078-2,2S2.8955078,50,4,50z"></path><linearGradient id="h" x1="8" x2="8" y1=".286" y2="95.814" gradientUnits="userSpaceOnUse"><stop offset="0" stop-color="#9cdbfa" class="stopColorf75ba2 svgShape"></stop><stop offset=".172" stop-color="#5cc1f4" class="stopColorf45ca3 svgShape"></stop><stop offset=".322" stop-color="#69c6f4" class="stopColore961a8 svgShape"></stop><stop offset=".464" stop-color="#68b2d7" class="stopColord768b0 svgShape"></stop><stop offset=".601" stop-color="#53b0de" class="stopColorbe73bb svgShape"></stop><stop offset=".734" stop-color="#80b0c8" class="stopColor9d80c8 svgShape"></stop><stop offset=".865" stop-color="#88d1f5" class="stopColor7590da svgShape"></stop><stop offset=".991" stop-color="#47b6ed" class="stopColor47a4ed svgShape"></stop><stop offset="1" stop-color="#43b6ef" class="stopColor43a5ef svgShape"></stop></linearGradient><path fill="url(#h)" d="M4,58h8c1.1044922,0,2-0.8955078,2-2s-0.8955078-2-2-2H4c-1.1044922,0-2,0.8955078-2,2S2.8955078,58,4,58z"></path><linearGradient id="i" x1="8" x2="8" y1=".286" y2="95.814" gradientUnits="userSpaceOnUse"><stop offset="0" stop-color="#9cdbfa" class="stopColorf75ba2 svgShape"></stop><stop offset=".172" stop-color="#5cc1f4" class="stopColorf45ca3 svgShape"></stop><stop offset=".322" stop-color="#69c6f4" class="stopColore961a8 svgShape"></stop><stop offset=".464" stop-color="#68b2d7" class="stopColord768b0 svgShape"></stop><stop offset=".601" stop-color="#53b0de" class="stopColorbe73bb svgShape"></stop><stop offset=".734" stop-color="#80b0c8" class="stopColor9d80c8 svgShape"></stop><stop offset=".865" stop-color="#88d1f5" class="stopColor7590da svgShape"></stop><stop offset=".991" stop-color="#47b6ed" class="stopColor47a4ed svgShape"></stop><stop offset="1" stop-color="#43b6ef" class="stopColor43a5ef svgShape"></stop></linearGradient><path fill="url(#i)" d="M14,64c0-1.1044922-0.8955078-2-2-2H4c-1.1044922,0-2,0.8955078-2,2s0.8955078,2,2,2h8
		C13.1044922,66,14,65.1044922,14,64z"></path><linearGradient id="j" x1="66" x2="66" y1=".286" y2="95.814" gradientUnits="userSpaceOnUse"><stop offset="0" stop-color="#9cdbfa" class="stopColorf75ba2 svgShape"></stop><stop offset=".172" stop-color="#5cc1f4" class="stopColorf45ca3 svgShape"></stop><stop offset=".322" stop-color="#69c6f4" class="stopColore961a8 svgShape"></stop><stop offset=".464" stop-color="#68b2d7" class="stopColord768b0 svgShape"></stop><stop offset=".601" stop-color="#53b0de" class="stopColorbe73bb svgShape"></stop><stop offset=".734" stop-color="#80b0c8" class="stopColor9d80c8 svgShape"></stop><stop offset=".865" stop-color="#88d1f5" class="stopColor7590da svgShape"></stop><stop offset=".991" stop-color="#47b6ed" class="stopColor47a4ed svgShape"></stop><stop offset="1" stop-color="#43b6ef" class="stopColor43a5ef svgShape"></stop></linearGradient><path fill="url(#j)" d="M79,30c0-7.1679688-5.831543-13-13-13s-13,5.8320312-13,13s5.831543,13,13,13S79,37.1679688,79,30z M57,30
		c0-4.9628906,4.0375977-9,9-9s9,4.0371094,9,9s-4.0375977,9-9,9S57,34.9628906,57,30z"></path><linearGradient id="k" x1="66" x2="66" y1=".286" y2="95.814" gradientUnits="userSpaceOnUse"><stop offset="0" stop-color="#9cdbfa" class="stopColorf75ba2 svgShape"></stop><stop offset=".172" stop-color="#5cc1f4" class="stopColorf45ca3 svgShape"></stop><stop offset=".322" stop-color="#69c6f4" class="stopColore961a8 svgShape"></stop><stop offset=".464" stop-color="#68b2d7" class="stopColord768b0 svgShape"></stop><stop offset=".601" stop-color="#53b0de" class="stopColorbe73bb svgShape"></stop><stop offset=".734" stop-color="#80b0c8" class="stopColor9d80c8 svgShape"></stop><stop offset=".865" stop-color="#88d1f5" class="stopColor7590da svgShape"></stop><stop offset=".991" stop-color="#47b6ed" class="stopColor47a4ed svgShape"></stop><stop offset="1" stop-color="#43b6ef" class="stopColor43a5ef svgShape"></stop></linearGradient><path fill="url(#k)" d="M66,14c1.1044922,0,2-0.8955078,2-2V4c0-1.1044922-0.8955078-2-2-2s-2,0.8955078-2,2v8
		C64,13.1044922,64.8955078,14,66,14z"></path><linearGradient id="l" x1="66" x2="66" y1=".286" y2="95.814" gradientUnits="userSpaceOnUse"><stop offset="0" stop-color="#9cdbfa" class="stopColorf75ba2 svgShape"></stop><stop offset=".172" stop-color="#5cc1f4" class="stopColorf45ca3 svgShape"></stop><stop offset=".322" stop-color="#69c6f4" class="stopColore961a8 svgShape"></stop><stop offset=".464" stop-color="#68b2d7" class="stopColord768b0 svgShape"></stop><stop offset=".601" stop-color="#53b0de" class="stopColorbe73bb svgShape"></stop><stop offset=".734" stop-color="#80b0c8" class="stopColor9d80c8 svgShape"></stop><stop offset=".865" stop-color="#88d1f5" class="stopColor7590da svgShape"></stop><stop offset=".991" stop-color="#47b6ed" class="stopColor47a4ed svgShape"></stop><stop offset="1" stop-color="#43b6ef" class="stopColor43a5ef svgShape"></stop></linearGradient><path fill="url(#l)" d="M66,46c-1.1044922,0-2,0.8955078-2,2v8c0,1.1044922,0.8955078,2,2,2s2-0.8955078,2-2v-8
		C68,46.8955078,67.1044922,46,66,46z"></path><linearGradient id="m" x1="81.556" x2="81.556" y1=".286" y2="95.814" gradientUnits="userSpaceOnUse"><stop offset="0" stop-color="#9cdbfa" class="stopColorf75ba2 svgShape"></stop><stop offset=".172" stop-color="#5cc1f4" class="stopColorf45ca3 svgShape"></stop><stop offset=".322" stop-color="#69c6f4" class="stopColore961a8 svgShape"></stop><stop offset=".464" stop-color="#68b2d7" class="stopColord768b0 svgShape"></stop><stop offset=".601" stop-color="#53b0de" class="stopColorbe73bb svgShape"></stop><stop offset=".734" stop-color="#80b0c8" class="stopColor9d80c8 svgShape"></stop><stop offset=".865" stop-color="#88d1f5" class="stopColor7590da svgShape"></stop><stop offset=".991" stop-color="#47b6ed" class="stopColor47a4ed svgShape"></stop><stop offset="1" stop-color="#43b6ef" class="stopColor43a5ef svgShape"></stop></linearGradient><path fill="url(#m)" d="M78.7280273,19.2724609c0.5117188,0,1.0239258-0.1953125,1.4140625-0.5859375l5.6567383-5.6572266
		c0.78125-0.78125,0.78125-2.046875,0-2.828125s-2.0478516-0.78125-2.828125,0l-5.6567383,5.6572266
		c-0.78125,0.78125-0.78125,2.046875,0,2.828125C77.7045898,19.0771484,78.2163086,19.2724609,78.7280273,19.2724609z"></path><linearGradient id="n" x1="50.444" x2="50.444" y1=".286" y2="95.814" gradientUnits="userSpaceOnUse"><stop offset="0" stop-color="#9cdbfa" class="stopColorf75ba2 svgShape"></stop><stop offset=".172" stop-color="#5cc1f4" class="stopColorf45ca3 svgShape"></stop><stop offset=".322" stop-color="#69c6f4" class="stopColore961a8 svgShape"></stop><stop offset=".464" stop-color="#68b2d7" class="stopColord768b0 svgShape"></stop><stop offset=".601" stop-color="#53b0de" class="stopColorbe73bb svgShape"></stop><stop offset=".734" stop-color="#80b0c8" class="stopColor9d80c8 svgShape"></stop><stop offset=".865" stop-color="#88d1f5" class="stopColor7590da svgShape"></stop><stop offset=".991" stop-color="#47b6ed" class="stopColor47a4ed svgShape"></stop><stop offset="1" stop-color="#43b6ef" class="stopColor43a5ef svgShape"></stop></linearGradient><path fill="url(#n)" d="M51.8579102,41.3134766l-5.6567383,5.6572266c-0.78125,0.78125-0.78125,2.046875,0,2.828125
		c0.390625,0.390625,0.9023438,0.5859375,1.4140625,0.5859375s1.0239258-0.1953125,1.4140625-0.5859375l5.6567383-5.6572266
		c0.78125-0.78125,0.78125-2.046875,0-2.828125S52.6381836,40.5322266,51.8579102,41.3134766z"></path><linearGradient id="o" x1="81.556" x2="81.556" y1=".286" y2="95.814" gradientUnits="userSpaceOnUse"><stop offset="0" stop-color="#9cdbfa" class="stopColorf75ba2 svgShape"></stop><stop offset=".172" stop-color="#5cc1f4" class="stopColorf45ca3 svgShape"></stop><stop offset=".322" stop-color="#69c6f4" class="stopColore961a8 svgShape"></stop><stop offset=".464" stop-color="#68b2d7" class="stopColord768b0 svgShape"></stop><stop offset=".601" stop-color="#53b0de" class="stopColorbe73bb svgShape"></stop><stop offset=".734" stop-color="#80b0c8" class="stopColor9d80c8 svgShape"></stop><stop offset=".865" stop-color="#88d1f5" class="stopColor7590da svgShape"></stop><stop offset=".991" stop-color="#47b6ed" class="stopColor47a4ed svgShape"></stop><stop offset="1" stop-color="#43b6ef" class="stopColor43a5ef svgShape"></stop></linearGradient><path fill="url(#o)" d="M84.3847656,50.3847656c0.5117188,0,1.0234375-0.1953125,1.4140625-0.5859375
		c0.78125-0.78125,0.78125-2.046875,0-2.828125l-5.6567383-5.6572266c-0.7802734-0.78125-2.046875-0.78125-2.828125,0
		s-0.78125,2.046875,0,2.828125l5.6567383,5.6572266C83.3608398,50.1894531,83.8730469,50.3847656,84.3847656,50.3847656z"></path><linearGradient id="p" x1="50.444" x2="50.444" y1=".286" y2="95.814" gradientUnits="userSpaceOnUse"><stop offset="0" stop-color="#9cdbfa" class="stopColorf75ba2 svgShape"></stop><stop offset=".172" stop-color="#5cc1f4" class="stopColorf45ca3 svgShape"></stop><stop offset=".322" stop-color="#69c6f4" class="stopColore961a8 svgShape"></stop><stop offset=".464" stop-color="#68b2d7" class="stopColord768b0 svgShape"></stop><stop offset=".601" stop-color="#53b0de" class="stopColorbe73bb svgShape"></stop><stop offset=".734" stop-color="#80b0c8" class="stopColor9d80c8 svgShape"></stop><stop offset=".865" stop-color="#88d1f5" class="stopColor7590da svgShape"></stop><stop offset=".991" stop-color="#47b6ed" class="stopColor47a4ed svgShape"></stop><stop offset="1" stop-color="#43b6ef" class="stopColor43a5ef svgShape"></stop></linearGradient><path fill="url(#p)" d="M51.8579102,18.6865234c0.3901367,0.390625,0.9023438,0.5859375,1.4140625,0.5859375
		s1.0234375-0.1953125,1.4140625-0.5859375c0.78125-0.78125,0.78125-2.046875,0-2.828125l-5.6567383-5.6572266
		c-0.7802734-0.78125-2.046875-0.78125-2.828125,0s-0.78125,2.046875,0,2.828125L51.8579102,18.6865234z"></path><linearGradient id="q" x1="88" x2="88" y1=".286" y2="95.814" gradientUnits="userSpaceOnUse"><stop offset="0" stop-color="#9cdbfa" class="stopColorf75ba2 svgShape"></stop><stop offset=".172" stop-color="#5cc1f4" class="stopColorf45ca3 svgShape"></stop><stop offset=".322" stop-color="#69c6f4" class="stopColore961a8 svgShape"></stop><stop offset=".464" stop-color="#68b2d7" class="stopColord768b0 svgShape"></stop><stop offset=".601" stop-color="#53b0de" class="stopColorbe73bb svgShape"></stop><stop offset=".734" stop-color="#80b0c8" class="stopColor9d80c8 svgShape"></stop><stop offset=".865" stop-color="#88d1f5" class="stopColor7590da svgShape"></stop><stop offset=".991" stop-color="#47b6ed" class="stopColor47a4ed svgShape"></stop><stop offset="1" stop-color="#43b6ef" class="stopColor43a5ef svgShape"></stop></linearGradient><path fill="url(#q)" d="M92,28h-8c-1.1044922,0-2,0.8955078-2,2s0.8955078,2,2,2h8c1.1044922,0,2-0.8955078,2-2S93.1044922,28,92,28z
		"></path><linearGradient id="r" x1="44" x2="44" y1=".286" y2="95.814" gradientUnits="userSpaceOnUse"><stop offset="0" stop-color="#9cdbfa" class="stopColorf75ba2 svgShape"></stop><stop offset=".172" stop-color="#5cc1f4" class="stopColorf45ca3 svgShape"></stop><stop offset=".322" stop-color="#69c6f4" class="stopColore961a8 svgShape"></stop><stop offset=".464" stop-color="#68b2d7" class="stopColord768b0 svgShape"></stop><stop offset=".601" stop-color="#53b0de" class="stopColorbe73bb svgShape"></stop><stop offset=".734" stop-color="#80b0c8" class="stopColor9d80c8 svgShape"></stop><stop offset=".865" stop-color="#88d1f5" class="stopColor7590da svgShape"></stop><stop offset=".991" stop-color="#47b6ed" class="stopColor47a4ed svgShape"></stop><stop offset="1" stop-color="#43b6ef" class="stopColor43a5ef svgShape"></stop></linearGradient><path fill="url(#r)" d="M40,32h8c1.1044922,0,2-0.8955078,2-2s-0.8955078-2-2-2h-8c-1.1044922,0-2,0.8955078-2,2S38.8955078,32,40,32
		z"></path><linearGradient id="s" x1="51" x2="51" y1=".286" y2="95.814" gradientUnits="userSpaceOnUse"><stop offset="0" stop-color="#9cdbfa" class="stopColorf75ba2 svgShape"></stop><stop offset=".172" stop-color="#5cc1f4" class="stopColorf45ca3 svgShape"></stop><stop offset=".322" stop-color="#69c6f4" class="stopColore961a8 svgShape"></stop><stop offset=".464" stop-color="#68b2d7" class="stopColord768b0 svgShape"></stop><stop offset=".601" stop-color="#53b0de" class="stopColorbe73bb svgShape"></stop><stop offset=".734" stop-color="#80b0c8" class="stopColor9d80c8 svgShape"></stop><stop offset=".865" stop-color="#88d1f5" class="stopColor7590da svgShape"></stop><stop offset=".991" stop-color="#47b6ed" class="stopColor47a4ed svgShape"></stop><stop offset="1" stop-color="#43b6ef" class="stopColor43a5ef svgShape"></stop></linearGradient><path fill="url(#s)" d="M53.8398438,67.9980469c0-1.7285156-0.8193359-2.703125-1.3085938-3.2851562
		C52.1777344,64.2910156,52.1601562,64.2578125,52.1601562,64c0-1.1044922-0.8955078-2-2-2s-2,0.8955078-2,2
		c0,1.7285156,0.8193359,2.703125,1.3085938,3.2851562c0.3535156,0.421875,0.3710938,0.4550781,0.3710938,0.7128906
		s-0.0175781,0.2910156-0.3710938,0.7128906c-0.4892578,0.5820312-1.3085938,1.5566406-1.3085938,3.2851562
		s0.8193359,2.703125,1.309082,3.2861328c0.3618164,0.4306641,0.3706055,0.4599609,0.3706055,0.7109375
		c0,0.2578125-0.0175781,0.2910156-0.3710938,0.7128906c-0.4892578,0.5820312-1.3085938,1.5566406-1.3085938,3.2851562
		c0,1.7275391,0.8188477,2.703125,1.3081055,3.2851562c0.3540039,0.421875,0.371582,0.4550781,0.371582,0.7138672
		c0,0.2607422-0.0175781,0.2939453-0.3720703,0.7167969c-0.4887695,0.5830078-1.3076172,1.5585938-1.3076172,3.2880859
		c0,1.7285156,0.8183594,2.7041016,1.3076172,3.2871094C49.8222656,91.7050781,49.8398438,91.7392578,49.8398438,92
		c0,1.1044922,0.8955078,2,2,2s2-0.8955078,2-2c0-1.7294922-0.8188477-2.7050781-1.3076172-3.2880859
		c-0.3544922-0.4228516-0.3720703-0.4560547-0.3720703-0.7167969s0.0175781-0.2949219,0.3720703-0.7177734
		c0.4892578-0.5830078,1.3076172-1.5585938,1.3076172-3.2871094s-0.8193359-2.7041016-1.3085938-3.2861328
		c-0.3535156-0.421875-0.3710938-0.4550781-0.3710938-0.7128906s0.0175781-0.2910156,0.3710938-0.7128906
		c0.4892578-0.5820312,1.3085938-1.5566406,1.3085938-3.2851562c0-1.7275391-0.8193359-2.7021484-1.3085938-3.2851562
		c-0.3535156-0.4208984-0.3710938-0.4541016-0.3710938-0.7119141s0.0175781-0.2910156,0.3710938-0.7128906
		C53.0205078,70.7011719,53.8398438,69.7265625,53.8398438,67.9980469z"></path><linearGradient id="t" x1="62" x2="62" y1=".286" y2="95.814" gradientUnits="userSpaceOnUse"><stop offset="0" stop-color="#9cdbfa" class="stopColorf75ba2 svgShape"></stop><stop offset=".172" stop-color="#5cc1f4" class="stopColorf45ca3 svgShape"></stop><stop offset=".322" stop-color="#69c6f4" class="stopColore961a8 svgShape"></stop><stop offset=".464" stop-color="#68b2d7" class="stopColord768b0 svgShape"></stop><stop offset=".601" stop-color="#53b0de" class="stopColorbe73bb svgShape"></stop><stop offset=".734" stop-color="#80b0c8" class="stopColor9d80c8 svgShape"></stop><stop offset=".865" stop-color="#88d1f5" class="stopColor7590da svgShape"></stop><stop offset=".991" stop-color="#47b6ed" class="stopColor47a4ed svgShape"></stop><stop offset="1" stop-color="#43b6ef" class="stopColor43a5ef svgShape"></stop></linearGradient><path fill="url(#t)" d="M64.8398438,67.9980469c0-1.7285156-0.8193359-2.703125-1.3085938-3.2851562
		C63.1777344,64.2910156,63.1601562,64.2578125,63.1601562,64c0-1.1044922-0.8955078-2-2-2s-2,0.8955078-2,2
		c0,1.7285156,0.8193359,2.703125,1.3085938,3.2851562c0.3535156,0.421875,0.3710938,0.4550781,0.3710938,0.7128906
		s-0.0175781,0.2910156-0.3710938,0.7128906c-0.4892578,0.5820312-1.3085938,1.5566406-1.3085938,3.2851562
		s0.8193359,2.703125,1.309082,3.2861328c0.3618164,0.4306641,0.3706055,0.4599609,0.3706055,0.7109375
		c0,0.2578125-0.0175781,0.2910156-0.3710938,0.7128906c-0.4892578,0.5820312-1.3085938,1.5566406-1.3085938,3.2851562
		c0,1.7275391,0.8188477,2.703125,1.3081055,3.2851562c0.3540039,0.421875,0.371582,0.4550781,0.371582,0.7138672
		c0,0.2607422-0.0175781,0.2939453-0.3720703,0.7167969c-0.4887695,0.5830078-1.3076172,1.5585938-1.3076172,3.2880859
		c0,1.7285156,0.8183594,2.7041016,1.3076172,3.2871094C60.8222656,91.7050781,60.8398438,91.7392578,60.8398438,92
		c0,1.1044922,0.8955078,2,2,2s2-0.8955078,2-2c0-1.7294922-0.8188477-2.7050781-1.3076172-3.2880859
		c-0.3544922-0.4228516-0.3720703-0.4560547-0.3720703-0.7167969s0.0175781-0.2949219,0.3720703-0.7177734
		c0.4892578-0.5830078,1.3076172-1.5585938,1.3076172-3.2871094s-0.8193359-2.7041016-1.3085938-3.2861328
		c-0.3535156-0.421875-0.3710938-0.4550781-0.3710938-0.7128906s0.0175781-0.2910156,0.3710938-0.7128906
		c0.4892578-0.5820312,1.3085938-1.5566406,1.3085938-3.2851562c0-1.7275391-0.8193359-2.7021484-1.3085938-3.2851562
		c-0.3535156-0.4208984-0.3710938-0.4541016-0.3710938-0.7119141s0.0175781-0.2910156,0.3710938-0.7128906
		C64.0205078,70.7011719,64.8398438,69.7265625,64.8398438,67.9980469z"></path><linearGradient id="u" x1="73" x2="73" y1=".286" y2="95.814" gradientUnits="userSpaceOnUse"><stop offset="0" stop-color="#9cdbfa" class="stopColorf75ba2 svgShape"></stop><stop offset=".172" stop-color="#5cc1f4" class="stopColorf45ca3 svgShape"></stop><stop offset=".322" stop-color="#69c6f4" class="stopColore961a8 svgShape"></stop><stop offset=".464" stop-color="#68b2d7" class="stopColord768b0 svgShape"></stop><stop offset=".601" stop-color="#53b0de" class="stopColorbe73bb svgShape"></stop><stop offset=".734" stop-color="#80b0c8" class="stopColor9d80c8 svgShape"></stop><stop offset=".865" stop-color="#88d1f5" class="stopColor7590da svgShape"></stop><stop offset=".991" stop-color="#47b6ed" class="stopColor47a4ed svgShape"></stop><stop offset="1" stop-color="#43b6ef" class="stopColor43a5ef svgShape"></stop></linearGradient><path fill="url(#u)" d="M75.8398438,67.9980469c0-1.7285156-0.8193359-2.703125-1.3085938-3.2851562
		C74.1777344,64.2910156,74.1601562,64.2578125,74.1601562,64c0-1.1044922-0.8955078-2-2-2s-2,0.8955078-2,2
		c0,1.7285156,0.8193359,2.703125,1.3085938,3.2851562c0.3535156,0.421875,0.3710938,0.4550781,0.3710938,0.7128906
		s-0.0175781,0.2910156-0.3710938,0.7128906c-0.4892578,0.5820312-1.3085938,1.5566406-1.3085938,3.2851562
		s0.8193359,2.703125,1.309082,3.2861328c0.3618164,0.4306641,0.3706055,0.4599609,0.3706055,0.7109375
		c0,0.2578125-0.0175781,0.2910156-0.3710938,0.7128906c-0.4892578,0.5820312-1.3085938,1.5566406-1.3085938,3.2851562
		c0,1.7275391,0.8188477,2.703125,1.3081055,3.2851562c0.3540039,0.421875,0.371582,0.4550781,0.371582,0.7138672
		c0,0.2607422-0.0175781,0.2939453-0.3720703,0.7167969c-0.4887695,0.5830078-1.3076172,1.5585938-1.3076172,3.2880859
		c0,1.7285156,0.8183594,2.7041016,1.3076172,3.2871094C71.8222656,91.7050781,71.8398438,91.7392578,71.8398438,92
		c0,1.1044922,0.8955078,2,2,2s2-0.8955078,2-2c0-1.7294922-0.8188477-2.7050781-1.3076172-3.2880859
		c-0.3544922-0.4228516-0.3720703-0.4560547-0.3720703-0.7167969s0.0175781-0.2949219,0.3720703-0.7177734
		c0.4892578-0.5830078,1.3076172-1.5585938,1.3076172-3.2871094s-0.8193359-2.7041016-1.3085938-3.2861328
		c-0.3535156-0.421875-0.3710938-0.4550781-0.3710938-0.7128906s0.0175781-0.2910156,0.3710938-0.7128906
		c0.4892578-0.5820312,1.3085938-1.5566406,1.3085938-3.2851562c0-1.7275391-0.8193359-2.7021484-1.3085938-3.2851562
		c-0.3535156-0.4208984-0.3710938-0.4541016-0.3710938-0.7119141s0.0175781-0.2910156,0.3710938-0.7128906
		C75.0205078,70.7011719,75.8398438,69.7265625,75.8398438,67.9980469z"></path><linearGradient id="v" x1="84" x2="84" y1=".286" y2="95.814" gradientUnits="userSpaceOnUse"><stop offset="0" stop-color="#9cdbfa" class="stopColorf75ba2 svgShape"></stop><stop offset=".172" stop-color="#5cc1f4" class="stopColorf45ca3 svgShape"></stop><stop offset=".322" stop-color="#69c6f4" class="stopColore961a8 svgShape"></stop><stop offset=".464" stop-color="#68b2d7" class="stopColord768b0 svgShape"></stop><stop offset=".601" stop-color="#53b0de" class="stopColorbe73bb svgShape"></stop><stop offset=".734" stop-color="#80b0c8" class="stopColor9d80c8 svgShape"></stop><stop offset=".865" stop-color="#88d1f5" class="stopColor7590da svgShape"></stop><stop offset=".991" stop-color="#47b6ed" class="stopColor47a4ed svgShape"></stop><stop offset="1" stop-color="#43b6ef" class="stopColor43a5ef svgShape"></stop></linearGradient><path fill="url(#v)" d="M86.8398438,67.9980469c0-1.7285156-0.8193359-2.703125-1.3085938-3.2851562
		C85.1777344,64.2910156,85.1601562,64.2578125,85.1601562,64c0-1.1044922-0.8955078-2-2-2s-2,0.8955078-2,2
		c0,1.7285156,0.8193359,2.703125,1.3085938,3.2851562c0.3535156,0.421875,0.3710938,0.4550781,0.3710938,0.7128906
		s-0.0175781,0.2910156-0.3710938,0.7128906c-0.4892578,0.5820312-1.3085938,1.5566406-1.3085938,3.2851562
		s0.8193359,2.703125,1.309082,3.2861328c0.3618164,0.4306641,0.3706055,0.4599609,0.3706055,0.7109375
		c0,0.2578125-0.0175781,0.2910156-0.3710938,0.7128906c-0.4892578,0.5820312-1.3085938,1.5566406-1.3085938,3.2851562
		c0,1.7275391,0.8188477,2.703125,1.3081055,3.2851562c0.3540039,0.421875,0.371582,0.4550781,0.371582,0.7138672
		c0,0.2607422-0.0175781,0.2939453-0.3720703,0.7167969c-0.4887695,0.5830078-1.3076172,1.5585938-1.3076172,3.2880859
		c0,1.7285156,0.8183594,2.7041016,1.3076172,3.2871094C82.8222656,91.7050781,82.8398438,91.7392578,82.8398438,92
		c0,1.1044922,0.8955078,2,2,2s2-0.8955078,2-2c0-1.7294922-0.8188477-2.7050781-1.3076172-3.2880859
		c-0.3544922-0.4228516-0.3720703-0.4560547-0.3720703-0.7167969s0.0175781-0.2949219,0.3720703-0.7177734
		c0.4892578-0.5830078,1.3076172-1.5585938,1.3076172-3.2871094s-0.8193359-2.7041016-1.3085938-3.2861328
		c-0.3535156-0.421875-0.3710938-0.4550781-0.3710938-0.7128906s0.0175781-0.2910156,0.3710938-0.7128906
		c0.4892578-0.5820312,1.3085938-1.5566406,1.3085938-3.2851562c0-1.7275391-0.8193359-2.7021484-1.3085938-3.2851562
		c-0.3535156-0.4208984-0.3710938-0.4541016-0.3710938-0.7119141s0.0175781-0.2910156,0.3710938-0.7128906
		C86.0205078,70.7011719,86.8398438,69.7265625,86.8398438,67.9980469z"></path></svg></g></svg>