<svg xmlns="http://www.w3.org/2000/svg" width="16" height="16" id="wind"><path fill="#e7e5f2" d="m4.5 2.493 8 1v3l-8 1z"></path><path fill="#e74f69" d="M6 2.993h1v4H6v-4zm2 0h1v4H8v-4zm2 0h1v4h-1v-4z"></path><path style="line-height:normal;text-indent:0;text-align:start;text-decoration-line:none;text-decoration-style:solid;text-decoration-color:#000;text-transform:none;block-progression:tb;white-space:normal;isolation:auto;mix-blend-mode:normal;solid-color:#000;solid-opacity:1" d="M4.492 1037.355a.5.5 0 0 0-.492.506v13a.5.5 0 1 0 1 0v-13a.5.5 0 0 0-.508-.506z" color="#000" font-family="sans-serif" font-weight="400" overflow="visible" transform="translate(0 -1036.362)"></path><path style="line-height:normal;text-indent:0;text-align:start;text-decoration-line:none;text-decoration-style:solid;text-decoration-color:#000;text-transform:none;block-progression:tb;white-space:normal;isolation:auto;mix-blend-mode:normal;solid-color:#000;solid-opacity:1" d="M4.463 1038.355a.5.5 0 0 0-.463.5v5a.5.5 0 0 0 .563.497l8-1a.5.5 0 0 0 .437-.497v-3a.5.5 0 0 0-.438-.496l-8-1a.5.5 0 0 0-.1 0zm.537 1.067 7 .875v2.117l-7 .875v-3.867z" color="#000" font-family="sans-serif" font-weight="400" overflow="visible" transform="translate(0 -1036.362)"></path></svg>